<svg xmlns="http://www.w3.org/2000/svg" xmlns:xlink="http://www.w3.org/1999/xlink" version="1.1" x="0px" y="0px" viewBox="0 0 100 125"><path d="M965,758 l97,38 c-60,253,-187,442,-373,554 c0,-185,94,-386,276,-592 Z M1109,1350 c-81,-157,-81,-340,0,-486 c79,146,79,329,0,486 Z M994,807 l-181,-147 c-138,84,-229,131,-373,131 c-303,0,-440,-207,-440,-437 c0,-62,17,-123,53,-192 c-76,108,-253,62,-253,-93 c0,-21,3,-44,10,-69 l913,1 c0,106,-86,102,-318,102 c92,48,168,173,181,344 c22,-67,24,-179,6,-252 c217,-33,298,-161,325,-186 c5,-5,11,-8,17,-8 l95,0 c51,0,49,6,25,51 l-100,191 l141,257 c95,0,203,12,203,86 c0,119,-175,263,-304,221 Z M994,807 " fill="#000000" stroke="none" stroke-dasharray="none" stroke-linecap="inherit" stroke-linejoin="inherit" stroke-width="1" transform="matrix(0.0416666666667,0.0,0.0,-0.0416666666667,25.0,75.0)"/></svg>